<?xml version="1.0" standalone="no"?>
<!DOCTYPE svg PUBLIC "-//W3C//DTD SVG 20010904//EN"
 "http://www.w3.org/TR/2001/REC-SVG-20010904/DTD/svg10.dtd">
<svg version="1.0" xmlns="http://www.w3.org/2000/svg"
 width="225.000000pt" height="225.000000pt" viewBox="0 0 225.000000 225.000000"
 preserveAspectRatio="xMidYMid meet">

<g transform="translate(0.000000,225.000000) scale(0.100000,-0.100000)"
fill="#000000" stroke="none">
<path d="M1242 2059 c-97 -49 -159 -160 -150 -273 7 -77 26 -117 90 -182 59
-61 55 -68 -57 -89 -126 -24 -165 -21 -219 20 -49 38 -76 79 -76 117 -1 34
-24 116 -37 129 -15 15 -53 -6 -53 -31 0 -19 -1 -19 -35 1 -20 12 -40 29 -45
39 -39 74 -110 64 -110 -15 0 -67 60 -141 156 -191 56 -29 60 -34 82 -95 12
-35 31 -71 42 -80 10 -9 71 -26 134 -39 l116 -23 0 -43 0 -44 73 0 72 0 66
-59 c37 -32 81 -68 98 -80 17 -12 31 -29 31 -37 0 -8 4 -13 9 -10 5 3 11 -1
15 -9 3 -8 -45 11 -112 46 -64 33 -118 57 -119 52 -2 -4 -27 -7 -55 -5 -75 3
-558 8 -558 5 0 -4 125 -60 151 -68 18 -6 19 -5 10 13 -10 19 -7 19 192 15
111 -3 207 -9 213 -14 8 -7 11 -59 10 -172 -2 -89 -4 -208 -4 -264 -2 -84 -5
-103 -17 -103 -11 0 -15 -11 -15 -40 0 -29 4 -40 15 -40 10 0 15 -10 15 -34 0
-19 5 -38 10 -41 6 -3 10 -24 10 -45 0 -32 3 -38 16 -33 12 5 15 15 10 48 -4
23 -2 111 4 195 10 147 13 157 48 229 20 41 42 76 49 78 7 3 13 -15 17 -49 19
-198 26 -294 26 -353 0 -62 -2 -69 -31 -96 -24 -22 -30 -35 -27 -61 l3 -33
110 1 c150 0 179 19 141 93 -12 22 -15 82 -14 302 0 285 -8 373 -42 460 -20
51 -27 139 -11 139 5 0 21 -30 37 -66 22 -53 36 -71 68 -91 23 -14 66 -51 98
-83 84 -88 126 -111 202 -117 75 -6 105 7 132 58 24 48 12 70 -65 114 -39 22
-71 46 -71 53 0 7 20 21 45 32 52 22 76 63 52 87 -17 17 -51 4 -215 -83 -32
-18 -32 -17 -60 9 -16 15 -56 78 -91 141 -64 117 -93 147 -159 170 -20 7 -35
17 -32 22 3 5 25 22 50 39 52 35 105 108 121 168 14 52 7 143 -15 185 -67 130
-225 190 -344 131z"/>
<path d="M880 631 c0 -11 4 -22 9 -25 5 -3 7 -36 4 -73 -4 -63 -3 -66 10 -43
8 14 18 47 21 73 8 53 29 60 34 11 2 -22 0 -26 -7 -14 -9 13 -11 12 -10 -5 1
-11 5 -31 9 -45 l8 -25 1 28 1 27 80 0 c64 0 80 3 80 15 0 8 5 15 10 15 6 0
10 18 10 40 l0 40 -110 0 c-103 0 -110 -1 -110 -20 0 -11 -4 -20 -10 -20 -5 0
-10 9 -10 20 0 11 -4 20 -10 20 -5 0 -10 -9 -10 -19z m27 -98 c-3 -10 -5 -4
-5 12 0 17 2 24 5 18 2 -7 2 -21 0 -30z"/>
<path d="M926 511 c-4 -7 -5 -15 -2 -18 9 -9 19 4 14 18 -4 11 -6 11 -12 0z"/>
<path d="M1170 352 c-5 -62 -5 -62 22 -62 22 0 25 4 21 21 -4 15 -8 17 -14 8
-8 -14 -16 9 -22 66 -2 17 -5 2 -7 -33z"/>
<path d="M959 297 c4 -4 48 -6 97 -5 l89 3 -97 5 c-53 3 -94 1 -89 -3z"/>
<path d="M1255 254 c-27 -7 -84 -14 -125 -15 l-75 -2 60 -6 c53 -5 198 18 214
35 8 7 -23 3 -74 -12z"/>
<path d="M758 253 c18 -2 45 -2 60 0 15 2 0 4 -33 4 -33 0 -45 -2 -27 -4z"/>
<path d="M858 243 c7 -3 16 -2 19 1 4 3 -2 6 -13 5 -11 0 -14 -3 -6 -6z"/>
<path d="M895 245 c25 -9 145 -12 145 -4 0 5 -35 9 -77 8 -43 0 -73 -2 -68 -4z"/>
</g>
</svg>
